<svg xmlns="http://www.w3.org/2000/svg" viewBox="0 0 64 64">
  <defs>
    <linearGradient id="grad" x1="0%" y1="0%" x2="100%" y2="100%">
      <stop offset="0%" style="stop-color:#ec4899;stop-opacity:1" />
      <stop offset="100%" style="stop-color:#8b5cf6;stop-opacity:1" />
    </linearGradient>
  </defs>
  <circle cx="32" cy="32" r="32" fill="url(#grad)"/>
  <path d="M25.4 43.05a8 8 0 00-15.4 3 6 6 0 01-6.4 6 12 12 0 0022.4-6c0-1.06-.21-2.08-.59-3zm0 0a42.66 42.66 0 009.03-4.32m-13.45-.07a42.65 42.65 0 014.32-9.05m9.12 9.12a42.66 42.66 0 0012.7-12.4l10.34-15.5a3.07 3.07 0 00-4.26-4.26L37.7 16.85a42.66 42.66 0 00-12.4 12.7m9.12 9.12a18.07 18.07 0 00-9.12-9.12"
        fill="none"
        stroke="white"
        stroke-width="2.5"
        stroke-linecap="round"
        stroke-linejoin="round"
        transform="translate(4, 4) scale(0.875)"/>
</svg>
